<svg width="1758" height="4341" viewBox="0 0 1758 4341" fill="none" xmlns="http://www.w3.org/2000/svg">
<path d="M150.902 373.699C150.902 1896.57 152.9 4156.87 152.9 4340.6" stroke="url(#paint0_linear_617_856)" stroke-width="300"/>
<path d="M0.999789 373.869L0.999781 281.882C125.406 120.626 577.054 -107.3 1005 56.721C1432.95 220.743 1693.07 234.254 1758 145.902L1758 1007.28L1758 2992.98C1496.66 2995.86 1809.08 2582.55 1553.13 2377.57C1297.19 2172.61 1437.79 1986.63 1225.24 1717.67C1054.46 1501.57 1681.65 1129.26 1579.5 838.8C1477.34 548.343 466.225 416.471 0.999789 373.869Z" fill="url(#paint1_linear_617_856)"/>
<defs>
<linearGradient id="paint0_linear_617_856" x1="141.753" y1="3377.44" x2="639.446" y2="457.792" gradientUnits="userSpaceOnUse">
<stop offset="0.88005" stop-color="#F0EEEB"/>
<stop offset="1" stop-color="white"/>
</linearGradient>
<linearGradient id="paint1_linear_617_856" x1="191.583" y1="22.9214" x2="1819.82" y2="-206.821" gradientUnits="userSpaceOnUse">
<stop stop-color="white"/>
<stop offset="0.355149" stop-color="#ECEEE3" stop-opacity="0.4"/>
<stop offset="0.969413" stop-color="#F5F1EE"/>
</linearGradient>
</defs>
</svg>
