<svg width="24" height="24" viewBox="0 0 24 24" fill="none" xmlns="http://www.w3.org/2000/svg">
<rect width="24" height="24" rx="12" fill="url(#paint0_radial_566_842)"/>
<path d="M4.35218 14.6176C4.57776 14.8625 4.88366 15 5.20262 15C5.52157 15 5.82747 14.8625 6.05305 14.6176L12.0073 8.15257L17.9615 14.6176C18.1883 14.8555 18.4922 14.9872 18.8076 14.9842C19.123 14.9812 19.4247 14.8438 19.6477 14.6017C19.8707 14.3595 19.9972 14.032 20 13.6895C20.0027 13.3471 19.8815 13.0171 19.6623 12.7708L12.8577 5.3824C12.6321 5.13755 12.3262 5 12.0073 5C11.6883 5 11.3824 5.13755 11.1568 5.3824L4.35218 12.7708C4.12668 13.0157 4 13.3479 4 13.6942C4 14.0405 4.12668 14.3727 4.35218 14.6176Z" fill="#ECEEE3"/>
<defs>
<radialGradient id="paint0_radial_566_842" cx="0" cy="0" r="1" gradientUnits="userSpaceOnUse" gradientTransform="translate(11.7641 2.85315) rotate(90.1535) scale(21.1469 21.6623)">
<stop offset="0.275" stop-color="#939E8E"/>
<stop offset="1" stop-color="#494F45"/>
</radialGradient>
</defs>
</svg>
